<?xml version="1.0" encoding="UTF-8"?>
<svg id="Layer_1" data-name="Layer 1" xmlns="http://www.w3.org/2000/svg" viewBox="0 0 430.71 245.61">
  <defs>
    <style>
      .cls-1 {
        fill: #fff;
      }

      .cls-2 {
        fill: #606060;
      }
    </style>
  </defs>
  <path class="cls-2" d="M92,0V245.52H30.34l32.18-25.43v-28.53s-.33,1.33-12.44-15.01c0,0-.83-1.74-14.6-9.95,0,0,2.49-7.66,1.27-35.42h-11.5L0,163.47V40.26l19.5,24.88,17.47-18.91s8.52,9.18,25.44,1.55l.11-22.34L30.34,0h61.66Z"/>
  <rect class="cls-2" x="79.12" width="351.59" height="245.61"/>
  <g>
    <path class="cls-1" d="M204.49,11.42v27.42H111.37V104.54h91.01v27.58H111.37v72.19h95.71v28.55H82.18V11.42h122.31Z"/>
    <path class="cls-1" d="M416.95,67.88h-33.9c-8.98-23.36-29.2-35.04-60.67-35.04-24.44,0-43.53,7.98-57.26,23.93-13.74,15.95-20.6,38.15-20.6,66.59s6.95,51.26,20.84,67.48c13.9,16.22,33.12,24.33,57.67,24.33,30.6,0,50.88-12.11,60.83-36.34h36.01c-12.98,41.64-45.64,62.46-97.98,62.46-33.85,0-60.67-10.73-80.46-32.2-19.79-21.47-29.69-50.48-29.69-87.03s10.11-63.73,30.34-84.44c20.22-20.71,47.64-31.07,82.25-31.07,24.87,0,45.61,5.49,62.21,16.47,16.6,10.98,26.74,25.93,30.42,44.85h0Z"/>
  </g>
  <polygon class="cls-1" points="93.97 11.41 61.45 11.5 93.63 36.94 93.97 11.41"/>
  <polygon class="cls-1" points="95.04 207.34 62.86 232.77 95.38 232.85 95.04 207.34"/>
</svg>